<svg width="960" height="320" viewBox="0 0 960 320" fill="none" xmlns="http://www.w3.org/2000/svg" role="img" aria-labelledby="title desc">
  <title id="title">OfficeOS logo</title>
  <desc id="desc">A clean modular cube mark next to the OfficeOS wordmark.</desc>
  <rect width="960" height="320" fill="#FFFFFF"/>

  <g transform="translate(84 78)">
    <path d="M82 0L154 42L82 84L10 42L82 0Z" fill="#2457FF"/>
    <path d="M10 42L82 84V166L10 124V42Z" fill="#183FBF"/>
    <path d="M154 42L82 84V166L154 124V42Z" fill="#6D8BFF"/>
    <path d="M82 0L154 42L82 84L10 42L82 0Z" stroke="#101418" stroke-width="5" stroke-linejoin="round"/>
    <path d="M10 42L82 84L154 42" stroke="#101418" stroke-width="5" stroke-linejoin="round"/>
    <path d="M82 84V166" stroke="#101418" stroke-width="5" stroke-linecap="round"/>
    <path d="M10 42V124L82 166L154 124V42" stroke="#101418" stroke-width="5" stroke-linejoin="round"/>

    <rect x="118" y="102" width="54" height="54" rx="10" fill="#EEF2F5" stroke="#101418" stroke-width="5"/>
    <circle cx="145" cy="129" r="9" fill="#20B26B"/>
  </g>

  <g transform="translate(292 104)">
    <text x="0" y="62" fill="#101418" font-family="Inter, Geist, Arial, sans-serif" font-size="76" font-weight="760" letter-spacing="0">OfficeOS</text>
    <rect x="2" y="86" width="438" height="2" fill="#D8DEE4"/>
    <text x="0" y="128" fill="#46515D" font-family="JetBrains Mono, Geist Mono, Menlo, monospace" font-size="20" font-weight="500" letter-spacing="0">accepted spec in / operating app out</text>
  </g>
</svg>
